<svg width="13" height="13" fill="none" xmlns="http://www.w3.org/2000/svg"><path d="M6.579 4.163a2.087 2.087 0 00-2.083 2.083c0 1.147.936 2.083 2.083 2.083a2.087 2.087 0 002.083-2.083 2.087 2.087 0 00-2.083-2.083zm6.247 2.083c0-.863.008-1.717-.04-2.578-.05-1-.277-1.888-1.009-2.62C11.045.317 10.16.09 9.16.042 8.296-.007 7.44.001 6.58.001c-.862 0-1.717-.008-2.578.04-1 .049-1.887.277-2.618 1.008C.65 1.782.424 2.668.376 3.668c-.049.862-.04 1.717-.04 2.578 0 .86-.009 1.717.04 2.578.048 1 .276 1.887 1.008 2.619.732.732 1.618.959 2.618 1.008.863.048 1.718.04 2.579.04.862 0 1.717.008 2.578-.04 1-.049 1.887-.277 2.618-1.008.733-.733.96-1.62 1.008-2.62.05-.86.04-1.715.04-2.577zM6.579 9.45a3.2 3.2 0 01-3.205-3.204A3.2 3.2 0 016.58 3.04a3.2 3.2 0 013.205 3.205A3.2 3.2 0 016.579 9.45zm3.336-5.792a.748.748 0 110-1.497.748.748 0 110 1.497z" fill="#C3C3C3"/></svg>