<svg version="1.1" id="Capa_1" xmlns="http://www.w3.org/2000/svg" x="0" y="0" viewBox="0 0 512 512" xml:space="preserve"><path d="M255-1C113.618-1-1 113.618-1 255s114.618 256 256 256 256-114.618 256-256S396.382-1 255-1zm0 469.333c-117.818 0-213.333-95.515-213.333-213.333S137.182 41.667 255 41.667 468.333 137.182 468.333 255 372.818 468.333 255 468.333z" transform="translate(1 1)"/><path d="M361.667 148.333H148.333c-11.782 0-21.333 9.551-21.333 21.333 0 11.782 9.551 21.333 21.333 21.333h213.333c11.782 0 21.333-9.551 21.333-21.333.001-11.781-9.55-21.333-21.332-21.333zm0 85.334H148.333C136.551 233.667 127 243.218 127 255s9.551 21.333 21.333 21.333h213.333c11.782 0 21.333-9.551 21.333-21.333s-9.55-21.333-21.332-21.333zm0 85.333H148.333C136.551 319 127 328.551 127 340.333c0 11.782 9.551 21.333 21.333 21.333h213.333c11.782 0 21.333-9.551 21.333-21.333C383 328.551 373.449 319 361.667 319z" transform="translate(1 1)"/></svg>