<svg width="16" height="14" fill="none" xmlns="http://www.w3.org/2000/svg"><path d="M15.895 2.28c-.59.254-1.18.413-1.77.476a2.986 2.986 0 001.352-1.694 6 6 0 01-1.952.742 2.964 2.964 0 00-2.246-.97c-.85 0-1.575.3-2.175.899-.6.6-.9 1.324-.9 2.175 0 .228.026.463.077.704a8.566 8.566 0 01-3.536-.947 8.715 8.715 0 01-2.803-2.27 3.014 3.014 0 00-.419 1.551c0 .527.124 1.016.372 1.466.247.45.58.815.999 1.095a3.05 3.05 0 01-1.39-.39v.037c0 .743.234 1.395.7 1.956a3.024 3.024 0 001.765 1.062c-.266.07-.536.104-.809.104-.177 0-.37-.016-.58-.047a3.009 3.009 0 001.085 1.518 3 3 0 001.79.614 6.02 6.02 0 01-3.817 1.313c-.273 0-.52-.012-.743-.038a8.538 8.538 0 004.721 1.38 8.982 8.982 0 003.074-.519c.958-.345 1.777-.809 2.456-1.39a9.3 9.3 0 001.756-2.003 8.936 8.936 0 001.1-2.365 8.738 8.738 0 00.351-2.87 6.438 6.438 0 001.542-1.589z" fill="#C3C3C3"/></svg>