<svg width="17" height="10" fill="none" xmlns="http://www.w3.org/2000/svg"><path d="M16.578 8.588a1.142 1.142 0 00-.056-.109c-.29-.52-.842-1.16-1.658-1.918l-.017-.017-.008-.008-.01-.01h-.008c-.37-.352-.605-.59-.703-.71-.18-.232-.22-.467-.121-.704.069-.18.33-.558.78-1.137.238-.306.426-.552.565-.737 1-1.33 1.434-2.181 1.301-2.551L16.592.6c-.035-.052-.125-.1-.27-.143a1.366 1.366 0 00-.555-.022l-2.499.018a.324.324 0 00-.174.004l-.112.026-.044.022-.034.026a.384.384 0 00-.096.09.594.594 0 00-.086.153 14.2 14.2 0 01-.93 1.952c-.213.359-.41.67-.59.933a4.49 4.49 0 01-.45.581 3.144 3.144 0 01-.33.3c-.099.075-.174.107-.226.095a6.357 6.357 0 01-.147-.035.577.577 0 01-.195-.212.95.95 0 01-.1-.339 3.713 3.713 0 01-.03-.351 7.313 7.313 0 01.004-.417c.006-.179.008-.3.008-.364 0-.22.005-.459.013-.716l.022-.612c.006-.15.009-.31.009-.477 0-.168-.01-.3-.03-.395A1.35 1.35 0 009.657.44.468.468 0 009.48.232a1.003 1.003 0 00-.29-.118A5.775 5.775 0 008.018.001C6.942-.01 6.251.06 5.944.21c-.121.063-.231.15-.33.26-.104.127-.118.197-.043.208.347.052.593.176.738.373l.052.104c.04.076.08.209.121.4.04.19.067.402.078.633.03.422.03.784 0 1.085-.029.3-.056.535-.082.702a1.408 1.408 0 01-.221.6.15.15 0 01-.044.043.65.65 0 01-.234.043c-.081 0-.18-.04-.295-.122a2.083 2.083 0 01-.36-.334 4.466 4.466 0 01-.421-.594 10.375 10.375 0 01-.486-.902l-.139-.252a21.642 21.642 0 01-.356-.707c-.15-.31-.283-.61-.399-.899a.572.572 0 00-.208-.277L3.272.548a.921.921 0 00-.338-.13L.554.435C.313.435.148.49.061.6L.026.652A.28.28 0 000 .79a.69.69 0 00.052.234 28.64 28.64 0 001.132 2.36c.408.758.763 1.369 1.063 1.831.301.463.608.9.92 1.31.313.411.52.674.62.79a5.3 5.3 0 00.24.26l.216.209c.14.139.343.305.612.499.27.193.567.384.894.572.327.188.707.342 1.141.46.434.119.856.167 1.267.144h.998c.202-.018.356-.082.46-.191l.034-.044a.574.574 0 00.065-.16.881.881 0 00.03-.239 2.86 2.86 0 01.057-.672c.043-.2.093-.35.148-.452a1.109 1.109 0 01.334-.381.57.57 0 01.07-.03c.138-.047.302-.002.49.134s.364.304.53.503c.164.2.362.424.593.673.232.249.434.433.608.555l.173.104c.116.07.267.133.452.191a.972.972 0 00.486.044l2.221-.035c.22 0 .39-.036.512-.109.122-.072.194-.152.217-.238a.672.672 0 00.004-.295 1.07 1.07 0 00-.06-.23z" fill="#C3C3C3"/></svg>