<?xml version="1.0" encoding="utf-8"?><svg viewBox="0 0 24 23" xmlns="http://www.w3.org/2000/svg" xmlns:xlink="http://www.w3.org/1999/xlink"><style>:root>svg{display:none}:root>svg:target{display:block}</style><svg fill="none" viewBox="0 0 24 23" id="basket" xmlns="http://www.w3.org/2000/svg"><path d="M9 22a1 1 0 100-2 1 1 0 000 2zM20 22a1 1 0 100-2 1 1 0 000 2zM1 1h4l2.68 13.39a2 2 0 002 1.61h9.72a2 2 0 002-1.61L23 6H6" stroke="#3C3D3D" stroke-width="2" stroke-linecap="round" stroke-linejoin="round"/></svg><svg fill="none" viewBox="0 0 18 20" id="user" xmlns="http://www.w3.org/2000/svg"><path d="M17 19v-2a4 4 0 00-4-4H5a4 4 0 00-4 4v2M9 9a4 4 0 100-8 4 4 0 000 8z" stroke="#3C3D3D" stroke-width="2" stroke-linecap="round" stroke-linejoin="round"/></svg></svg>