<?xml version="1.0" encoding="utf-8"?><svg viewBox="0 0 512 512" xmlns="http://www.w3.org/2000/svg" xmlns:xlink="http://www.w3.org/1999/xlink"><style>:root>svg{display:none}:root>svg:target{display:block}</style><svg fill="none" viewBox="0 0 16 14" id="arrow" xmlns="http://www.w3.org/2000/svg"><path d="M1 7h14M9 1l6 6-6 6" stroke="#8B6CCA" stroke-width="1.5" stroke-linecap="round" stroke-linejoin="round"/></svg><svg fill="none" viewBox="0 0 20 16" id="arrow-btn" xmlns="http://www.w3.org/2000/svg"><path d="M19.11 8.707a1 1 0 000-1.414L12.746.929a1 1 0 10-1.414 1.414L16.989 8l-5.657 5.657a1 1 0 001.414 1.414l6.364-6.364zM.316 9h18.087V7H.316v2z" fill="#fff"/></svg><svg fill="none" viewBox="0 0 24 23" id="basket" xmlns="http://www.w3.org/2000/svg"><path d="M9 22a1 1 0 100-2 1 1 0 000 2zM20 22a1 1 0 100-2 1 1 0 000 2zM1 1h4l2.68 13.39a2 2 0 002 1.61h9.72a2 2 0 002-1.61L23 6H6" stroke="#3C3D3D" stroke-width="2" stroke-linecap="round" stroke-linejoin="round"/></svg><svg fill="none" viewBox="0 0 9 15" id="face" xmlns="http://www.w3.org/2000/svg"><path d="M7.983.003L6.038 0C3.852 0 2.44 1.449 2.44 3.692v1.702H.484a.306.306 0 00-.306.306v2.466c0 .169.137.306.306.306H2.44v6.222c0 .17.137.306.306.306h2.552a.306.306 0 00.306-.306V8.471H7.89a.306.306 0 00.306-.305L8.197 5.7a.306.306 0 00-.306-.306H5.604V3.95c0-.694.165-1.046 1.068-1.046h1.31a.306.306 0 00.306-.306V.309a.306.306 0 00-.305-.306z" fill="#C3C3C3"/></svg><svg fill="none" viewBox="0 0 13 13" id="inst" xmlns="http://www.w3.org/2000/svg"><path d="M6.579 4.163a2.087 2.087 0 00-2.083 2.083c0 1.147.936 2.083 2.083 2.083a2.087 2.087 0 002.083-2.083 2.087 2.087 0 00-2.083-2.083zm6.247 2.083c0-.863.008-1.717-.04-2.578-.05-1-.277-1.888-1.009-2.62C11.045.317 10.16.09 9.16.042 8.296-.007 7.44.001 6.58.001c-.862 0-1.717-.008-2.578.04-1 .049-1.887.277-2.618 1.008C.65 1.782.424 2.668.376 3.668c-.049.862-.04 1.717-.04 2.578 0 .86-.009 1.717.04 2.578.048 1 .276 1.887 1.008 2.619.732.732 1.618.959 2.618 1.008.863.048 1.718.04 2.579.04.862 0 1.717.008 2.578-.04 1-.049 1.887-.277 2.618-1.008.733-.733.96-1.62 1.008-2.62.05-.86.04-1.715.04-2.577zM6.579 9.45a3.2 3.2 0 01-3.205-3.204A3.2 3.2 0 016.58 3.04a3.2 3.2 0 013.205 3.205A3.2 3.2 0 016.579 9.45zm3.336-5.792a.748.748 0 110-1.497.748.748 0 110 1.497z" fill="#C3C3C3"/></svg><svg viewBox="0 0 512 512" id="menu" xmlns="http://www.w3.org/2000/svg"><path d="M256 0C114.618 0 0 114.618 0 256s114.618 256 256 256 256-114.618 256-256S397.382 0 256 0zm0 469.333c-117.818 0-213.333-95.515-213.333-213.333S138.182 42.667 256 42.667 469.333 138.182 469.333 256 373.818 469.333 256 469.333z"/><path d="M362.667 149.333H149.333c-11.782 0-21.333 9.551-21.333 21.333 0 11.782 9.551 21.333 21.333 21.333h213.333c11.782 0 21.333-9.551 21.333-21.333.001-11.781-9.55-21.333-21.332-21.333zM362.667 234.667H149.333C137.551 234.667 128 244.218 128 256s9.551 21.333 21.333 21.333h213.333c11.782 0 21.333-9.551 21.333-21.333s-9.55-21.333-21.332-21.333zM362.667 320H149.333C137.551 320 128 329.551 128 341.333c0 11.782 9.551 21.333 21.333 21.333h213.333c11.782 0 21.333-9.551 21.333-21.333C384 329.551 374.449 320 362.667 320z"/></svg><svg fill="none" viewBox="0 0 13 16" id="play" xmlns="http://www.w3.org/2000/svg"><path d="M13 8.001c0 .399-.396.685-.396.685l-11.13 7.07C.663 16.303 0 15.899 0 14.866V1.136C0 .1.663-.3 1.476.243l11.129 7.073c-.002 0 .395.287.395.685z" fill="#fff"/></svg><svg fill="none" viewBox="0 0 16 14" id="twit" xmlns="http://www.w3.org/2000/svg"><path d="M15.895 2.28c-.59.254-1.18.413-1.77.476a2.986 2.986 0 001.352-1.694c-.61.362-1.26.61-1.952.742a2.964 2.964 0 00-2.246-.97c-.85 0-1.575.3-2.175.899-.6.6-.9 1.324-.9 2.175 0 .228.026.463.077.704a8.566 8.566 0 01-3.536-.947 8.715 8.715 0 01-2.803-2.27c-.279.476-.419.993-.419 1.551 0 .527.124 1.016.372 1.466.247.45.58.815.999 1.095a3.05 3.05 0 01-1.39-.39v.037c0 .743.234 1.395.7 1.956a3.024 3.024 0 001.765 1.062c-.266.07-.536.104-.809.104-.177 0-.37-.016-.58-.047a3.009 3.009 0 001.085 1.518 3 3 0 001.79.614 6.02 6.02 0 01-3.817 1.313c-.273 0-.52-.012-.743-.038a8.538 8.538 0 004.721 1.38 8.982 8.982 0 003.074-.519c.958-.345 1.777-.809 2.456-1.39a9.3 9.3 0 001.756-2.003 8.936 8.936 0 001.1-2.365 8.738 8.738 0 00.351-2.87 6.438 6.438 0 001.542-1.589z" fill="#C3C3C3"/></svg><svg fill="none" viewBox="0 0 18 20" id="user" xmlns="http://www.w3.org/2000/svg"><path d="M17 19v-2a4 4 0 00-4-4H5a4 4 0 00-4 4v2M9 9a4 4 0 100-8 4 4 0 000 8z" stroke="#3C3D3D" stroke-width="2" stroke-linecap="round" stroke-linejoin="round"/></svg><svg fill="none" viewBox="0 0 17 10" id="vk" xmlns="http://www.w3.org/2000/svg"><path d="M16.578 8.588a1.142 1.142 0 00-.056-.109c-.29-.52-.842-1.16-1.658-1.918l-.017-.017-.008-.008-.01-.01h-.008c-.37-.352-.605-.59-.703-.71-.18-.232-.22-.467-.121-.704.069-.18.33-.558.78-1.137.238-.306.426-.552.565-.737 1-1.33 1.434-2.181 1.301-2.551L16.592.6c-.035-.052-.125-.1-.27-.143a1.366 1.366 0 00-.555-.022l-2.499.018a.324.324 0 00-.174.004l-.112.026-.044.022-.034.026a.384.384 0 00-.096.09.594.594 0 00-.086.153c-.273.7-.582 1.35-.93 1.952-.213.359-.41.67-.59.933a4.49 4.49 0 01-.45.581 3.144 3.144 0 01-.33.3c-.099.075-.174.107-.226.095a6.357 6.357 0 01-.147-.035.577.577 0 01-.195-.212.95.95 0 01-.1-.339 3.713 3.713 0 01-.03-.351 7.313 7.313 0 01.004-.417c.006-.179.008-.3.008-.364 0-.22.005-.459.013-.716l.022-.612c.006-.15.009-.31.009-.477 0-.168-.01-.3-.03-.395A1.35 1.35 0 009.657.44a.468.468 0 00-.177-.208A1.003 1.003 0 009.19.114 5.775 5.775 0 008.018.001C6.942-.01 6.251.06 5.944.21c-.121.063-.231.15-.33.26-.104.127-.118.197-.043.208.347.052.593.176.738.373l.052.104c.04.076.08.209.121.4.04.19.067.402.078.633.03.422.03.784 0 1.085-.029.3-.056.535-.082.702a1.408 1.408 0 01-.221.6.15.15 0 01-.044.043.65.65 0 01-.234.043c-.081 0-.18-.04-.295-.122a2.083 2.083 0 01-.36-.334 4.466 4.466 0 01-.421-.594 10.375 10.375 0 01-.486-.902l-.139-.252a21.642 21.642 0 01-.356-.707c-.15-.31-.283-.61-.399-.899a.572.572 0 00-.208-.277L3.272.548a.921.921 0 00-.338-.13L.554.435C.313.435.148.49.061.6L.026.652A.28.28 0 000 .79a.69.69 0 00.052.234 28.64 28.64 0 001.132 2.36c.408.758.763 1.369 1.063 1.831.301.463.608.9.92 1.31.313.411.52.674.62.79.102.116.182.203.24.26l.216.209c.14.139.343.305.612.499.27.193.567.384.894.572.327.188.707.342 1.141.46.434.119.856.167 1.267.144h.998c.202-.018.356-.082.46-.191l.034-.044a.574.574 0 00.065-.16.881.881 0 00.03-.239 2.86 2.86 0 01.057-.672c.043-.2.093-.35.148-.452a1.109 1.109 0 01.334-.381.57.57 0 01.07-.03c.138-.047.302-.002.49.134s.364.304.53.503c.164.2.362.424.593.673.232.249.434.433.608.555l.173.104c.116.07.267.133.452.191a.972.972 0 00.486.044l2.221-.035c.22 0 .39-.036.512-.109.122-.072.194-.152.217-.238a.672.672 0 00.004-.295c-.02-.11-.04-.187-.06-.23z" fill="#C3C3C3"/></svg><svg fill="none" viewBox="0 0 16 12" id="youtube" xmlns="http://www.w3.org/2000/svg"><path d="M15.216 1.623c-.571-.68-1.627-.956-3.642-.956H4.26C2.198.667 1.125.962.555 1.685 0 2.39 0 3.429 0 4.867v2.741c0 2.786.659 4.201 4.259 4.201h7.315c1.748 0 2.716-.244 3.343-.844.642-.615.916-1.619.916-3.357v-2.74c0-1.517-.043-2.563-.617-3.245zm-5.05 4.993L6.842 8.352a.51.51 0 01-.747-.452V4.439a.51.51 0 01.746-.454l3.322 1.725a.51.51 0 01.001.906z" fill="#C3C3C3"/></svg></svg>