<?xml version="1.0" encoding="utf-8"?><svg viewBox="0 0 24 23" xmlns="http://www.w3.org/2000/svg" xmlns:xlink="http://www.w3.org/1999/xlink"><style>:root>svg{display:none}:root>svg:target{display:block}</style><svg fill="none" viewBox="0 0 20 16" id="arrow-btn" xmlns="http://www.w3.org/2000/svg"><path d="M19.11 8.707a1 1 0 000-1.414L12.746.929a1 1 0 10-1.414 1.414L16.989 8l-5.657 5.657a1 1 0 001.414 1.414l6.364-6.364zM.316 9h18.087V7H.316v2z" fill="#fff"/></svg><svg fill="none" viewBox="0 0 24 23" id="basket" xmlns="http://www.w3.org/2000/svg"><path d="M9 22a1 1 0 100-2 1 1 0 000 2zM20 22a1 1 0 100-2 1 1 0 000 2zM1 1h4l2.68 13.39a2 2 0 002 1.61h9.72a2 2 0 002-1.61L23 6H6" stroke="#3C3D3D" stroke-width="2" stroke-linecap="round" stroke-linejoin="round"/></svg><svg fill="none" viewBox="0 0 13 16" id="play" xmlns="http://www.w3.org/2000/svg"><path d="M13 8.001c0 .399-.396.685-.396.685l-11.13 7.07C.663 16.303 0 15.899 0 14.866V1.136C0 .1.663-.3 1.476.243l11.129 7.073c-.002 0 .395.287.395.685z" fill="#fff"/></svg><svg fill="none" viewBox="0 0 18 20" id="user" xmlns="http://www.w3.org/2000/svg"><path d="M17 19v-2a4 4 0 00-4-4H5a4 4 0 00-4 4v2M9 9a4 4 0 100-8 4 4 0 000 8z" stroke="#3C3D3D" stroke-width="2" stroke-linecap="round" stroke-linejoin="round"/></svg></svg>